<svg xmlns="http://www.w3.org/2000/svg" viewBox="0 0 800 900"><defs><g id="pedaling1" transform="rotate(-12)"><defs><g id="pedal1"><line stroke="white" stroke-width="25" stroke-linecap="round" x1="0" y1="-85" x2="0" y2="0"></line><line stroke="black" stroke-width="20" stroke-linecap="round" x1="0" y1="-85" x2="0" y2="0"></line><animateTransform attributeName="transform" attributeType="XML" type="rotate" from="180" to="540" dur="2s" repeatCount="indefinite"></animateTransform></g></defs><use href="#pedal1" x="0" y="310"></use><defs><g id="leg1"><line stroke="#fbc02d" stroke-width="50" stroke-linecap="round" x1="0" y1="0" x2="0" y2="210"></line><defs><g id="leg1lowerLeg"><line stroke="#fbc02d" stroke-width="50" stroke-linecap="round" x1="0" y1="0" x2="0" y2="160"></line><line stroke="white" stroke-width="25" stroke-linecap="round" x1="-20" y1="210" x2="20" y2="210"></line><line stroke="black" stroke-width="20" stroke-linecap="round" x1="-20" y1="210" x2="20" y2="210"></line><animateTransform attributeName="transform" attributeType="XML" type="rotate" values="39.74;40.97;44.46;49.67;56.06;63.17;70.65;78.24;85.71;92.85;99.43;105.21;109.91;113.25;114.99;114.99;113.25;109.91;105.21;99.43;92.85;85.71;78.24;70.65;63.17;56.06;49.67;44.46;40.97;39.74;" dur="2s" repeatCount="indefinite"></animateTransform></g></defs><use href="#leg1lowerLeg" x="0" y="210"></use><animateTransform attributeName="transform" attributeType="XML" type="rotate" values="-19.87;-17.82;-16.96;-17.08;-17.97;-19.47;-21.50;-24.02;-27.05;-30.60;-34.70;-39.36;-44.48;-49.88;-55.16;-59.83;-63.37;-65.42;-65.85;-64.73;-62.25;-58.66;-54.22;-49.15;-43.70;-38.09;-32.59;-27.50;-23.15;-19.87;" dur="2s" repeatCount="indefinite"></animateTransform></g></defs><use href="#leg1" x="0" y="0"></use></g></defs><use href="#pedaling1" x="300" y="400"></use><defs><g id="bike"><circle stroke="white" stroke-width="30" fill-opacity="0" cx="-200" cy="-35" r="135"></circle><circle stroke="white" stroke-width="30" fill-opacity="0" cx="270" cy="-35" r="135"></circle><circle stroke="black" stroke-width="25" fill-opacity="0" cx="-200" cy="-35" r="135"></circle><circle stroke="black" stroke-width="25" fill-opacity="0" cx="270" cy="-35" r="135"></circle><path stroke="white" stroke-width="30" fill="none" stroke-linecap="round" stroke-linejoin="round" d=" M -60 -150 L -200 -35 L 0 0 L -90 -265 M 0 0 L 210 -215 M 210 -220 L 270 -35 L 210 -220 L 205 -260 "></path><path stroke="black" stroke-width="25" fill="none" stroke-linecap="round" stroke-linejoin="round" d=" M -60 -150 L -200 -35 L 0 0 L -90 -265 M 0 0 L 210 -215 M 210 -220 L 270 -35 L 210 -220 L 205 -260 "></path><path id="handle0" stroke="white" stroke-width="30" fill="none" stroke-linecap="round" stroke-linejoin="round" d=" M 205 -260 c 90 -20, 90 40, 40 50 "></path><path id="saddle0" stroke="white" stroke-width="30" fill="none" stroke-linecap="round" stroke-linejoin="round" d=" M -90 -265 h 40 h -60 "></path><path id="top-tube0" stroke="white" stroke-width="30" fill="none" stroke-linecap="round" stroke-linejoin="round" d=" M 200 -230 L -60 -180 "></path><path id="handle" stroke="black" stroke-width="25" fill="none" stroke-linecap="round" stroke-linejoin="round" d=" M 205 -260 c 90 -20, 90 40, 40 50 "></path><path id="saddle" stroke="black" stroke-width="25" fill="none" stroke-linecap="round" stroke-linejoin="round" d=" M -90 -265 h 40 h -60 "></path><path id="top-tube" stroke="url(#top-tube-color)" stroke-width="25" fill="none" stroke-linecap="round" stroke-linejoin="round" d=" M 200 -230 L -60 -180 "></path></g><linearGradient id="top-tube-color"><stop offset="0%" stop-color="green"></stop><stop offset="25%" stop-color="yellow"></stop><stop offset="50%" stop-color="black"></stop><stop offset="75%" stop-color="red"></stop><stop offset="100%" stop-color="aqua"></stop></linearGradient></defs><use href="#bike" x="364.4526241535054" y="703.2257562274798"></use><defs><g id="body" transform="rotate(43)"><line stroke="#fbc02d" stroke-width="50" stroke-linecap="round" x1="0" y1="0" x2="0" y2="-245"></line><circle stroke="#fbc02d" stroke-width="40" fill-opacity="0" cx="20" cy="-345" r="50"></circle><use href="#arm" x="0" y="-245"></use></g><g id="lower-arm" transform="rotate(-22.680418057395595)"><line stroke="#fbc02d" stroke-width="50" stroke-linecap="round" x1="0" y1="0" x2="0" y2="130"></line></g><g id="arm" transform="rotate(-71.24913841290623)"><use href="#lower-arm" x="0" y="130"></use><line stroke="#fbc02d" stroke-width="50" stroke-linecap="round" x1="0" y1="0" x2="0" y2="130"></line></g></defs><use href="#body" x="300" y="400"></use><defs><g id="pedaling0" transform="rotate(-12)"><defs><g id="pedal0"><line stroke="white" stroke-width="25" stroke-linecap="round" x1="0" y1="-85" x2="0" y2="0"></line><line stroke="black" stroke-width="20" stroke-linecap="round" x1="0" y1="-85" x2="0" y2="0"></line><animateTransform attributeName="transform" attributeType="XML" type="rotate" from="0" to="360" dur="2s" repeatCount="indefinite"></animateTransform></g></defs><use href="#pedal0" x="0" y="310"></use><defs><g id="leg0"><line stroke="#fbc02d" stroke-width="50" stroke-linecap="round" x1="0" y1="0" x2="0" y2="210"></line><defs><g id="leg0lowerLeg"><line stroke="#fbc02d" stroke-width="50" stroke-linecap="round" x1="0" y1="0" x2="0" y2="160"></line><line stroke="white" stroke-width="25" stroke-linecap="round" x1="-20" y1="210" x2="20" y2="210"></line><line stroke="black" stroke-width="20" stroke-linecap="round" x1="-20" y1="210" x2="20" y2="210"></line><animateTransform attributeName="transform" attributeType="XML" type="rotate" values="115.22;114.33;111.76;107.71;102.43;96.22;89.33;82.00;74.45;66.88;59.55;52.75;46.89;42.46;40.05;40.05;42.46;46.89;52.75;59.55;66.88;74.45;82.00;89.33;96.22;102.43;107.71;111.76;114.33;115.22;" dur="2s" repeatCount="indefinite"></animateTransform></g></defs><use href="#leg0lowerLeg" x="0" y="210"></use><animateTransform attributeName="transform" attributeType="XML" type="rotate" values="-57.61;-61.77;-64.60;-65.84;-65.47;-63.64;-60.58;-56.53;-51.75;-46.46;-40.90;-35.31;-29.97;-25.21;-21.36;-18.69;-17.26;-16.91;-17.44;-18.65;-20.42;-22.70;-25.47;-28.75;-32.58;-36.96;-41.87;-47.17;-52.56;-57.61;" dur="2s" repeatCount="indefinite"></animateTransform></g></defs><use href="#leg0" x="0" y="0"></use></g></defs><use href="#pedaling0" x="300" y="400"></use></svg>
